solid Exported from Blender-3.6.1
  facet normal 0.08775368332862854 0.445488303899765 -0.8909767270088196
    outer loop
      vertex 0 0 -0.9999999403953552
      vertex 0 2 -4.371138828673793e-8
      vertex 0.19509032368659973 0 -0.9807851910591125
    endloop
  endfacet
  facet normal 0.25988826155662537 0.4454882740974426 -0.8567368984222412
    outer loop
      vertex 0.19509032368659973 0 -0.9807851910591125
      vertex 0 2 -4.371138828673793e-8
      vertex 0.3826834559440613 0 -0.9238794445991516
    endloop
  endfacet
  facet normal 0.42203569412231445 0.445488303899765 -0.7895733118057251
    outer loop
      vertex 0.3826834559440613 0 -0.9238794445991516
      vertex 0 2 -4.371138828673793e-8
      vertex 0.5555702447891235 0 -0.8314695358276367
    endloop
  endfacet
  facet normal 0.5679645538330078 0.445488303899765 -0.6920667290687561
    outer loop
      vertex 0.5555702447891235 0 -0.8314695358276367
      vertex 0 2 -4.371138828673793e-8
      vertex 0.7071067690849304 0 -0.7071067094802856
    endloop
  endfacet
  facet normal 0.6920667886734009 0.4454882740974426 -0.5679646134376526
    outer loop
      vertex 0.7071067690849304 0 -0.7071067094802856
      vertex 0 2 -4.371138828673793e-8
      vertex 0.8314695954322815 0 -0.5555701851844788
    endloop
  endfacet
  facet normal 0.7895733118057251 0.4454883635044098 -0.42203569412231445
    outer loop
      vertex 0.8314695954322815 0 -0.5555701851844788
      vertex 0 2 -4.371138828673793e-8
      vertex 0.9238795042037964 0 -0.3826834261417389
    endloop
  endfacet
  facet normal 0.8567368984222412 0.445488303899765 -0.25988826155662537
    outer loop
      vertex 0.9238795042037964 0 -0.3826834261417389
      vertex 0 2 -4.371138828673793e-8
      vertex 0.9807852506637573 0 -0.19509027898311615
    endloop
  endfacet
  facet normal 0.8909766674041748 0.445488303899765 -0.08775367587804794
    outer loop
      vertex 0.9807852506637573 0 -0.19509027898311615
      vertex 0 2 -4.371138828673793e-8
      vertex 1 0 4.371138828673793e-8
    endloop
  endfacet
  facet normal 0.8909766674041748 0.445488303899765 0.08775367587804794
    outer loop
      vertex 1 0 4.371138828673793e-8
      vertex 0 2 -4.371138828673793e-8
      vertex 0.9807852506637573 0 0.1950903683900833
    endloop
  endfacet
  facet normal 0.8567368984222412 0.44548842310905457 0.25988826155662537
    outer loop
      vertex 0.9807852506637573 0 0.1950903683900833
      vertex 0 2 -4.371138828673793e-8
      vertex 0.9238795042037964 0 0.38268348574638367
    endloop
  endfacet
  facet normal 0.7895733118057251 0.445488303899765 0.42203569412231445
    outer loop
      vertex 0.9238795042037964 0 0.38268348574638367
      vertex 0 2 -4.371138828673793e-8
      vertex 0.8314695954322815 0 0.5555703043937683
    endloop
  endfacet
  facet normal 0.6920668482780457 0.4454883337020874 0.5679644346237183
    outer loop
      vertex 0.8314695954322815 0 0.5555703043937683
      vertex 0 2 -4.371138828673793e-8
      vertex 0.7071067690849304 5.960464477539063e-8 0.7071068286895752
    endloop
  endfacet
  facet normal 0.5679645538330078 0.44548824429512024 0.6920667290687561
    outer loop
      vertex 0.7071067690849304 5.960464477539063e-8 0.7071068286895752
      vertex 0 2 -4.371138828673793e-8
      vertex 0.5555702447891235 5.960464477539063e-8 0.8314696550369263
    endloop
  endfacet
  facet normal 0.42203569412231445 0.4454883635044098 0.7895733118057251
    outer loop
      vertex 0.5555702447891235 5.960464477539063e-8 0.8314696550369263
      vertex 0 2 -4.371138828673793e-8
      vertex 0.3826834559440613 5.960464477539063e-8 0.9238795638084412
    endloop
  endfacet
  facet normal 0.25988826155662537 0.4454883337020874 0.8567368984222412
    outer loop
      vertex 0.3826834559440613 5.960464477539063e-8 0.9238795638084412
      vertex 0 2 -4.371138828673793e-8
      vertex 0.19509032368659973 5.960464477539063e-8 0.9807853102684021
    endloop
  endfacet
  facet normal 0.08775341510772705 0.4454883635044098 0.8909766674041748
    outer loop
      vertex 0.19509032368659973 5.960464477539063e-8 0.9807853102684021
      vertex 0 2 -4.371138828673793e-8
      vertex 0 5.960464477539063e-8 1
    endloop
  endfacet
  facet normal -0.08775341510772705 0.4454883635044098 0.8909766674041748
    outer loop
      vertex 0 5.960464477539063e-8 1
      vertex 0 2 -4.371138828673793e-8
      vertex -0.19509032368659973 5.960464477539063e-8 0.9807853102684021
    endloop
  endfacet
  facet normal -0.25988826155662537 0.4454883933067322 0.8567368388175964
    outer loop
      vertex -0.19509032368659973 5.960464477539063e-8 0.9807853102684021
      vertex 0 2 -4.371138828673793e-8
      vertex -0.3826834559440613 5.960464477539063e-8 0.9238795638084412
    endloop
  endfacet
  facet normal -0.42203569412231445 0.4454883635044098 0.7895733118057251
    outer loop
      vertex -0.3826834559440613 5.960464477539063e-8 0.9238795638084412
      vertex 0 2 -4.371138828673793e-8
      vertex -0.5555702447891235 5.960464477539063e-8 0.8314696550369263
    endloop
  endfacet
  facet normal -0.5679645538330078 0.445488303899765 0.6920667290687561
    outer loop
      vertex -0.5555702447891235 5.960464477539063e-8 0.8314696550369263
      vertex 0 2 -4.371138828673793e-8
      vertex -0.7071067690849304 5.960464477539063e-8 0.7071068286895752
    endloop
  endfacet
  facet normal -0.6920668482780457 0.4454882740974426 0.5679644346237183
    outer loop
      vertex -0.7071067690849304 5.960464477539063e-8 0.7071068286895752
      vertex 0 2 -4.371138828673793e-8
      vertex -0.8314695954322815 0 0.5555703043937683
    endloop
  endfacet
  facet normal -0.7895733118057251 0.445488303899765 0.42203569412231445
    outer loop
      vertex -0.8314695954322815 0 0.5555703043937683
      vertex 0 2 -4.371138828673793e-8
      vertex -0.9238795042037964 0 0.38268348574638367
    endloop
  endfacet
  facet normal -0.8567368984222412 0.4454883933067322 0.25988826155662537
    outer loop
      vertex -0.9238795042037964 0 0.38268348574638367
      vertex 0 2 -4.371138828673793e-8
      vertex -0.9807852506637573 0 0.1950903683900833
    endloop
  endfacet
  facet normal -0.8909766674041748 0.445488303899765 0.08775367587804794
    outer loop
      vertex -0.9807852506637573 0 0.1950903683900833
      vertex 0 2 -4.371138828673793e-8
      vertex -1 0 4.371138828673793e-8
    endloop
  endfacet
  facet normal -0.8909766674041748 0.445488303899765 -0.08775367587804794
    outer loop
      vertex -1 0 4.371138828673793e-8
      vertex 0 2 -4.371138828673793e-8
      vertex -0.9807852506637573 0 -0.19509027898311615
    endloop
  endfacet
  facet normal -0.8567368984222412 0.4454883337020874 -0.25988826155662537
    outer loop
      vertex -0.9807852506637573 0 -0.19509027898311615
      vertex 0 2 -4.371138828673793e-8
      vertex -0.9238795042037964 0 -0.3826834261417389
    endloop
  endfacet
  facet normal -0.7895733118057251 0.4454883635044098 -0.42203569412231445
    outer loop
      vertex -0.9238795042037964 0 -0.3826834261417389
      vertex 0 2 -4.371138828673793e-8
      vertex -0.8314695954322815 0 -0.5555701851844788
    endloop
  endfacet
  facet normal -0.6920667886734009 0.4454882740974426 -0.5679646134376526
    outer loop
      vertex -0.8314695954322815 0 -0.5555701851844788
      vertex 0 2 -4.371138828673793e-8
      vertex -0.7071067690849304 0 -0.7071067094802856
    endloop
  endfacet
  facet normal -0.5679645538330078 0.445488303899765 -0.6920667290687561
    outer loop
      vertex -0.7071067690849304 0 -0.7071067094802856
      vertex 0 2 -4.371138828673793e-8
      vertex -0.5555702447891235 0 -0.8314695358276367
    endloop
  endfacet
  facet normal -0.42203569412231445 0.445488303899765 -0.7895733118057251
    outer loop
      vertex -0.5555702447891235 0 -0.8314695358276367
      vertex 0 2 -4.371138828673793e-8
      vertex -0.3826834559440613 0 -0.9238794445991516
    endloop
  endfacet
  facet normal 0 -0.9999999403953552 0
    outer loop
      vertex -0.19509032368659973 0 -0.9807851910591125
      vertex 0 0 -0.9999999403953552
      vertex 0.19509032368659973 0 -0.9807851910591125
    endloop
  endfacet
  facet normal 0 -1 0
    outer loop
      vertex 0.19509032368659973 0 -0.9807851910591125
      vertex 0.3826834559440613 0 -0.9238794445991516
      vertex 0.5555702447891235 0 -0.8314695358276367
    endloop
  endfacet
  facet normal 0 -1 0
    outer loop
      vertex 0.5555702447891235 0 -0.8314695358276367
      vertex 0.7071067690849304 0 -0.7071067094802856
      vertex 0.8314695954322815 0 -0.5555701851844788
    endloop
  endfacet
  facet normal 0 -0.9999999403953552 0
    outer loop
      vertex 0.8314695954322815 0 -0.5555701851844788
      vertex 0.9238795042037964 0 -0.3826834261417389
      vertex 0.9807852506637573 0 -0.19509027898311615
    endloop
  endfacet
  facet normal 0 -1 0
    outer loop
      vertex 0.9807852506637573 0 -0.19509027898311615
      vertex 1 0 4.371138828673793e-8
      vertex 0.9807852506637573 0 0.1950903683900833
    endloop
  endfacet
  facet normal 0 -1 0
    outer loop
      vertex 0.9807852506637573 0 0.1950903683900833
      vertex 0.9238795042037964 0 0.38268348574638367
      vertex 0.8314695954322815 0 0.5555703043937683
    endloop
  endfacet
  facet normal 9.887162377708592e-7 -1 0.0000012047552218064084
    outer loop
      vertex 0.8314695954322815 0 0.5555703043937683
      vertex 0.7071067690849304 5.960464477539063e-8 0.7071068286895752
      vertex 0.5555702447891235 5.960464477539063e-8 0.8314696550369263
    endloop
  endfacet
  facet normal 0 -0.9999999403953552 0
    outer loop
      vertex 0.5555702447891235 5.960464477539063e-8 0.8314696550369263
      vertex 0.3826834559440613 5.960464477539063e-8 0.9238795638084412
      vertex 0.19509032368659973 5.960464477539063e-8 0.9807853102684021
    endloop
  endfacet
  facet normal 0 -0.9999999403953552 0
    outer loop
      vertex 0.19509032368659973 5.960464477539063e-8 0.9807853102684021
      vertex 0 5.960464477539063e-8 1
      vertex -0.19509032368659973 5.960464477539063e-8 0.9807853102684021
    endloop
  endfacet
  facet normal 0 -1 0
    outer loop
      vertex -0.19509032368659973 5.960464477539063e-8 0.9807853102684021
      vertex -0.3826834559440613 5.960464477539063e-8 0.9238795638084412
      vertex -0.5555702447891235 5.960464477539063e-8 0.8314696550369263
    endloop
  endfacet
  facet normal -9.887162377708592e-7 -1 0.0000012047552218064084
    outer loop
      vertex -0.5555702447891235 5.960464477539063e-8 0.8314696550369263
      vertex -0.7071067690849304 5.960464477539063e-8 0.7071068286895752
      vertex -0.8314695954322815 0 0.5555703043937683
    endloop
  endfacet
  facet normal 0 -1 0
    outer loop
      vertex -0.8314695954322815 0 0.5555703043937683
      vertex -0.9238795042037964 0 0.38268348574638367
      vertex -0.9807852506637573 0 0.1950903683900833
    endloop
  endfacet
  facet normal 0 -1 0
    outer loop
      vertex -0.9807852506637573 0 0.1950903683900833
      vertex -1 0 4.371138828673793e-8
      vertex -0.9807852506637573 0 -0.19509027898311615
    endloop
  endfacet
  facet normal 0 -0.9999999403953552 0
    outer loop
      vertex -0.9807852506637573 0 -0.19509027898311615
      vertex -0.9238795042037964 0 -0.3826834261417389
      vertex -0.8314695954322815 0 -0.5555701851844788
    endloop
  endfacet
  facet normal 0 -1 0
    outer loop
      vertex -0.8314695954322815 0 -0.5555701851844788
      vertex -0.7071067690849304 0 -0.7071067094802856
      vertex -0.5555702447891235 0 -0.8314695358276367
    endloop
  endfacet
  facet normal 0 -0.9999999403953552 0
    outer loop
      vertex -0.5555702447891235 0 -0.8314695358276367
      vertex -0.3826834559440613 0 -0.9238794445991516
      vertex -0.19509032368659973 0 -0.9807851910591125
    endloop
  endfacet
  facet normal 0 -1 0
    outer loop
      vertex -0.19509032368659973 0 -0.9807851910591125
      vertex 0.19509032368659973 0 -0.9807851910591125
      vertex 0.5555702447891235 0 -0.8314695358276367
    endloop
  endfacet
  facet normal 0 -1 0
    outer loop
      vertex 0.5555702447891235 0 -0.8314695358276367
      vertex 0.8314695954322815 0 -0.5555701851844788
      vertex 0.9807852506637573 0 -0.19509027898311615
    endloop
  endfacet
  facet normal 0 -1 0
    outer loop
      vertex 0.9807852506637573 0 -0.19509027898311615
      vertex 0.9807852506637573 0 0.1950903683900833
      vertex 0.8314695954322815 0 0.5555703043937683
    endloop
  endfacet
  facet normal 1.5276171438927122e-7 -1 3.687993341827678e-7
    outer loop
      vertex 0.8314695954322815 0 0.5555703043937683
      vertex 0.5555702447891235 5.960464477539063e-8 0.8314696550369263
      vertex 0.19509032368659973 5.960464477539063e-8 0.9807853102684021
    endloop
  endfacet
  facet normal 0 -1 6.098024646003508e-14
    outer loop
      vertex 0.19509032368659973 5.960464477539063e-8 0.9807853102684021
      vertex -0.19509032368659973 5.960464477539063e-8 0.9807853102684021
      vertex -0.5555702447891235 5.960464477539063e-8 0.8314696550369263
    endloop
  endfacet
  facet normal 3.6879882259199803e-7 -0.9999999403953552 -1.5276148701559578e-7
    outer loop
      vertex -0.5555702447891235 5.960464477539063e-8 0.8314696550369263
      vertex -0.8314695954322815 0 0.5555703043937683
      vertex -0.9807852506637573 0 0.1950903683900833
    endloop
  endfacet
  facet normal 0 -1 0
    outer loop
      vertex -0.9807852506637573 0 0.1950903683900833
      vertex -0.9807852506637573 0 -0.19509027898311615
      vertex -0.8314695954322815 0 -0.5555701851844788
    endloop
  endfacet
  facet normal 0 -1 0
    outer loop
      vertex -0.8314695954322815 0 -0.5555701851844788
      vertex -0.5555702447891235 0 -0.8314695358276367
      vertex -0.19509032368659973 0 -0.9807851910591125
    endloop
  endfacet
  facet normal 0 -1 0
    outer loop
      vertex -0.19509032368659973 0 -0.9807851910591125
      vertex 0.5555702447891235 0 -0.8314695358276367
      vertex 0.9807852506637573 0 -0.19509027898311615
    endloop
  endfacet
  facet normal -1.0801875305332942e-7 -1 -2.1486272316906252e-8
    outer loop
      vertex 0.9807852506637573 0 -0.19509027898311615
      vertex 0.8314695954322815 0 0.5555703043937683
      vertex 0.19509032368659973 5.960464477539063e-8 0.9807853102684021
    endloop
  endfacet
  facet normal -2.1486265211478894e-8 -1 1.0801880279132092e-7
    outer loop
      vertex 0.19509032368659973 5.960464477539063e-8 0.9807853102684021
      vertex -0.5555702447891235 5.960464477539063e-8 0.8314696550369263
      vertex -0.9807852506637573 0 0.1950903683900833
    endloop
  endfacet
  facet normal 0 -1 0
    outer loop
      vertex -0.9807852506637573 0 0.1950903683900833
      vertex -0.8314695954322815 0 -0.5555701851844788
      vertex -0.19509032368659973 0 -0.9807851910591125
    endloop
  endfacet
  facet normal -2.3415536176685237e-8 -1 3.504382917185467e-8
    outer loop
      vertex -0.19509032368659973 0 -0.9807851910591125
      vertex 0.9807852506637573 0 -0.19509027898311615
      vertex 0.19509032368659973 5.960464477539063e-8 0.9807853102684021
    endloop
  endfacet
  facet normal 3.504382561914099e-8 -1 2.3415536176685237e-8
    outer loop
      vertex 0.19509032368659973 5.960464477539063e-8 0.9807853102684021
      vertex -0.9807852506637573 0 0.1950903683900833
      vertex -0.19509032368659973 0 -0.9807851910591125
    endloop
  endfacet
  facet normal -0.25988829135894775 0.445488303899765 -0.8567370176315308
    outer loop
      vertex -0.3826834559440613 0 -0.9238794445991516
      vertex 0 2 -4.371138828673793e-8
      vertex -0.19509032368659973 0 -0.9807851910591125
    endloop
  endfacet
  facet normal -0.08775368332862854 0.445488303899765 -0.8909767270088196
    outer loop
      vertex -0.19509032368659973 0 -0.9807851910591125
      vertex 0 2 -4.371138828673793e-8
      vertex 0 0 -0.9999999403953552
    endloop
  endfacet
endsolid Exported from Blender-3.6.1
